{
  "accessors": [
    {
      "bufferView": 2,
      "componentType": 5126,
      "count": 65532,
      "max": [
        0.2400197982788086,
        0.2800086438655853,
        0.44897717237472534
      ],
      "min": [
        -0.24000564217567444,
        -0.2862999439239502,
        -1.1734664440155029e-07
      ],
      "type": "VEC3"
    },
    {
      "bufferView": 2,
      "byteOffset": 786384,
      "componentType": 5126,
      "count": 65532,
      "type": "VEC3"
    },
    {
      "bufferView": 3,
      "componentType": 5126,
      "count": 65532,
      "type": "VEC4"
    },
    {
      "bufferView": 1,
      "componentType": 5126,
      "count": 65532,
      "type": "VEC2"
    },
    {
      "bufferView": 1,
      "byteOffset": 524256,
      "componentType": 5126,
      "count": 65532,
      "type": "VEC2"
    },
    {
      "bufferView": 1,
      "byteOffset": 1048512,
      "componentType": 5126,
      "count": 65532,
      "type": "VEC2"
    },
    {
      "bufferView": 0,
      "componentType": 5125,
      "count": 352866,
      "type": "SCALAR"
    },
    {
      "bufferView": 2,
      "byteOffset": 1572768,
      "componentType": 5126,
      "count": 758,
      "max": [
        -0.007900740951299667,
        0.1546722948551178,
        0.19710253179073334
      ],
      "min": [
        -0.12295804917812347,
        0.06447620689868927,
        0.06809178739786148
      ],
      "type": "VEC3"
    },
    {
      "bufferView": 2,
      "byteOffset": 1581864,
      "componentType": 5126,
      "count": 758,
      "type": "VEC3"
    },
    {
      "bufferView": 3,
      "byteOffset": 1048512,
      "componentType": 5126,
      "count": 758,
      "type": "VEC4"
    },
    {
      "bufferView": 1,
      "byteOffset": 1572768,
      "componentType": 5126,
      "count": 758,
      "type": "VEC2"
    },
    {
      "bufferView": 1,
      "byteOffset": 1578832,
      "componentType": 5126,
      "count": 758,
      "type": "VEC2"
    },
    {
      "bufferView": 1,
      "byteOffset": 1584896,
      "componentType": 5126,
      "count": 758,
      "type": "VEC2"
    },
    {
      "bufferView": 0,
      "byteOffset": 1411464,
      "componentType": 5125,
      "count": 2274,
      "type": "SCALAR"
    }
  ],
  "asset": {
    "generator": "fab-model-conversion",
    "version": "2.0"
  },
  "bufferViews": [
    {
      "buffer": 0,
      "byteLength": 1420560,
      "target": 34963
    },
    {
      "buffer": 0,
      "byteLength": 1590960,
      "byteOffset": 1420560,
      "byteStride": 8,
      "target": 34962
    },
    {
      "buffer": 0,
      "byteLength": 1590960,
      "byteOffset": 3011520,
      "byteStride": 12,
      "target": 34962
    },
    {
      "buffer": 0,
      "byteLength": 1060640,
      "byteOffset": 4602480,
      "byteStride": 16,
      "target": 34962
    }
  ],
  "buffers": [
    {
      "byteLength": 5663120,
      "uri": "scene.bin"
    }
  ],
  "images": [
    {
      "uri": "textures/SteelCutOffSaw_baseColor.png"
    },
    {
      "uri": "textures/SteelCutOffSaw_metallicRoughness.png"
    },
    {
      "uri": "textures/SteelCutOffSaw_normal.png"
    }
  ],
  "materials": [
    {
      "doubleSided": true,
      "name": "SteelCutOffSaw",
      "normalTexture": {
        "index": 2
      },
      "pbrMetallicRoughness": {
        "baseColorTexture": {
          "index": 0
        },
        "metallicFactor": 0.0,
        "metallicRoughnessTexture": {
          "index": 1
        }
      }
    }
  ],
  "meshes": [
    {
      "name": "SteelCutOffSaw_Mesh_SteelCutOffSaw_0",
      "primitives": [
        {
          "attributes": {
            "NORMAL": 1,
            "POSITION": 0,
            "TANGENT": 2,
            "TEXCOORD_0": 3,
            "TEXCOORD_1": 4,
            "TEXCOORD_2": 5
          },
          "indices": 6,
          "material": 0,
          "mode": 4
        }
      ]
    },
    {
      "name": "SteelCutOffSaw_Mesh_SteelCutOffSaw_0",
      "primitives": [
        {
          "attributes": {
            "NORMAL": 8,
            "POSITION": 7,
            "TANGENT": 9,
            "TEXCOORD_0": 10,
            "TEXCOORD_1": 11,
            "TEXCOORD_2": 12
          },
          "indices": 13,
          "material": 0,
          "mode": 4
        }
      ]
    }
  ],
  "nodes": [
    {
      "children": [
        1
      ],
      "matrix": [
        1.0,
        0.0,
        0.0,
        0.0,
        0.0,
        2.220446049250313e-16,
        -1.0,
        0.0,
        0.0,
        1.0,
        2.220446049250313e-16,
        0.0,
        0.0,
        0.0,
        0.0,
        1.0
      ],
      "name": "Sketchfab_model"
    },
    {
      "children": [
        2
      ],
      "matrix": [
        0.009999999776482582,
        0.0,
        0.0,
        0.0,
        0.0,
        0.0,
        0.009999999776482582,
        0.0,
        0.0,
        -0.009999999776482582,
        0.0,
        0.0,
        0.0,
        0.0,
        0.0,
        1.0
      ],
      "name": "cutoffsaw.fbx"
    },
    {
      "children": [
        3
      ],
      "name": "RootNode"
    },
    {
      "children": [
        4,
        5
      ],
      "matrix": [
        100.0,
        0.0,
        0.0,
        0.0,
        0.0,
        -1.629206793918314e-05,
        -99.99999999999868,
        0.0,
        0.0,
        99.99999999999868,
        -1.629206793918314e-05,
        0.0,
        0.0,
        0.0,
        0.0,
        1.0
      ],
      "name": "SteelCutOffSaw_Mesh"
    },
    {
      "mesh": 0,
      "name": "SteelCutOffSaw_Mesh_SteelCutOffSaw_0"
    },
    {
      "mesh": 1,
      "name": "SteelCutOffSaw_Mesh_SteelCutOffSaw_0"
    }
  ],
  "samplers": [
    {
      "magFilter": 9729,
      "minFilter": 9987,
      "wrapS": 10497,
      "wrapT": 10497
    }
  ],
  "scene": 0,
  "scenes": [
    {
      "name": "Sketchfab_Scene",
      "nodes": [
        0
      ]
    }
  ],
  "textures": [
    {
      "sampler": 0,
      "source": 0
    },
    {
      "sampler": 0,
      "source": 1
    },
    {
      "sampler": 0,
      "source": 2
    }
  ]
}
